# xmcd
#
# Track frame offsets: 
#        150
#        9440
#        21616
#        33365
#        49945
#        63982
#        74716
#        85998
#        103976
#        114912
#        120697
#
# Disc length: 1833 seconds
#
# Revision: 0
# Processed by: cddbd v1.5.2PL0 Copyright (c) Steve Scherf et al.
# Submitted via: ExactAudioCopyFreeDBPlugin 1.0
#
DISCID=9a07270b
DTITLE=Michael Gurley - I Ain't Gonna Sit on Santa's Lap
DYEAR=2015
DGENRE=
TTITLE0=Snowflakes
TTITLE1=I Ain't Gonna Sit On Santa's Lap
TTITLE2=I'll Be Home For Christmas
TTITLE3=Christmas Is Coming
TTITLE4=My Baby Fell For Ol' St. Nick (Dada Ver)
TTITLE5=I Can Hardly Wait For Christmas
TTITLE6=How The Holidays Have Got Me Down
TTITLE7=Kisses From My Misses on this Christmas
TTITLE8=Snowflakes (Reprise)
TTITLE9=Happy Birthday Jesus
TTITLE10=My Baby Fell For Ol' St. Nick
EXTD=
EXTT0=
EXTT1=
EXTT2=
EXTT3=
EXTT4=
EXTT5=
EXTT6=
EXTT7=
EXTT8=
EXTT9=
EXTT10=
PLAYORDER=
